<svg xmlns="http://www.w3.org/2000/svg" width="360" height="640" viewBox="0 0 360 640">
    <defs>
        <style>
            .cls-1{fill:url(#radial-gradient)}.cls-2{fill:url(#radial-gradient-2)}.cls-3{opacity:.05}.cls-4,.cls-6{fill:none}.cls-4{stroke:#fff;stroke-width:2px}.cls-5{stroke:none}
        </style>
        <radialGradient id="radial-gradient" cx=".5" cy=".5" r=".43" gradientTransform="translate(-.389 -.389) scale(1.778)">
            <stop offset="0" stop-color="#353130"/>
            <stop offset="1" stop-color="#292623"/>
        </radialGradient>
        <radialGradient id="radial-gradient-2" cx=".5" cy=".5" r=".281" gradientTransform="translate(-.389 -.389) scale(1.778)">
            <stop offset="0" stop-color="#353130" stop-opacity="0"/>
            <stop offset="1" stop-color="#171514"/>
        </radialGradient>
    </defs>
    <g id="Group_36" data-name="Group 36" transform="translate(-856 -60)">
        <path id="Rectangle_3" d="M0 0h360v640H0z" class="cls-1" data-name="Rectangle 3" transform="translate(856 60)"/>
        <path id="Rectangle_2" d="M0 0h360v640H0z" class="cls-2" data-name="Rectangle 2" transform="translate(856 60)"/>
        <g id="Group_1" class="cls-3" data-name="Group 1" transform="translate(856 60)">
            <g id="Ellipse_1" class="cls-4" data-name="Ellipse 1">
                <circle cx="18" cy="18" r="18" class="cls-5"/>
                <circle cx="18" cy="18" r="17" class="cls-6"/>
            </g>
            <g id="Ellipse_1-2" class="cls-4" data-name="Ellipse 1" transform="translate(36)">
                <circle cx="18" cy="18" r="18" class="cls-5"/>
                <circle cx="18" cy="18" r="17" class="cls-6"/>
            </g>
            <g id="Ellipse_1-3" class="cls-4" data-name="Ellipse 1" transform="translate(72)">
                <circle cx="18" cy="18" r="18" class="cls-5"/>
                <circle cx="18" cy="18" r="17" class="cls-6"/>
            </g>
            <g id="Ellipse_1-4" class="cls-4" data-name="Ellipse 1" transform="translate(108)">
                <circle cx="18" cy="18" r="18" class="cls-5"/>
                <circle cx="18" cy="18" r="17" class="cls-6"/>
            </g>
            <g id="Ellipse_1-5" class="cls-4" data-name="Ellipse 1" transform="translate(144)">
                <circle cx="18" cy="18" r="18" class="cls-5"/>
                <circle cx="18" cy="18" r="17" class="cls-6"/>
            </g>
            <g id="Ellipse_1-6" class="cls-4" data-name="Ellipse 1" transform="translate(180)">
                <circle cx="18" cy="18" r="18" class="cls-5"/>
                <circle cx="18" cy="18" r="17" class="cls-6"/>
            </g>
            <g id="Ellipse_1-7" class="cls-4" data-name="Ellipse 1" transform="translate(216)">
                <circle cx="18" cy="18" r="18" class="cls-5"/>
                <circle cx="18" cy="18" r="17" class="cls-6"/>
            </g>
            <g id="Ellipse_1-8" class="cls-4" data-name="Ellipse 1" transform="translate(252)">
                <circle cx="18" cy="18" r="18" class="cls-5"/>
                <circle cx="18" cy="18" r="17" class="cls-6"/>
            </g>
            <g id="Ellipse_1-9" class="cls-4" data-name="Ellipse 1" transform="translate(288)">
                <circle cx="18" cy="18" r="18" class="cls-5"/>
                <circle cx="18" cy="18" r="17" class="cls-6"/>
            </g>
            <g id="Ellipse_1-10" class="cls-4" data-name="Ellipse 1" transform="translate(324)">
                <circle cx="18" cy="18" r="18" class="cls-5"/>
                <circle cx="18" cy="18" r="17" class="cls-6"/>
            </g>
            <g id="Ellipse_1-11" class="cls-4" data-name="Ellipse 1" transform="translate(0 36)">
                <circle cx="18" cy="18" r="18" class="cls-5"/>
                <circle cx="18" cy="18" r="17" class="cls-6"/>
            </g>
            <g id="Ellipse_1-12" class="cls-4" data-name="Ellipse 1" transform="translate(36 36)">
                <circle cx="18" cy="18" r="18" class="cls-5"/>
                <circle cx="18" cy="18" r="17" class="cls-6"/>
            </g>
            <g id="Ellipse_1-13" class="cls-4" data-name="Ellipse 1" transform="translate(72 36)">
                <circle cx="18" cy="18" r="18" class="cls-5"/>
                <circle cx="18" cy="18" r="17" class="cls-6"/>
            </g>
            <g id="Ellipse_1-14" class="cls-4" data-name="Ellipse 1" transform="translate(108 36)">
                <circle cx="18" cy="18" r="18" class="cls-5"/>
                <circle cx="18" cy="18" r="17" class="cls-6"/>
            </g>
            <g id="Ellipse_1-15" class="cls-4" data-name="Ellipse 1" transform="translate(144 36)">
                <circle cx="18" cy="18" r="18" class="cls-5"/>
                <circle cx="18" cy="18" r="17" class="cls-6"/>
            </g>
            <g id="Ellipse_1-16" class="cls-4" data-name="Ellipse 1" transform="translate(180 36)">
                <circle cx="18" cy="18" r="18" class="cls-5"/>
                <circle cx="18" cy="18" r="17" class="cls-6"/>
            </g>
            <g id="Ellipse_1-17" class="cls-4" data-name="Ellipse 1" transform="translate(216 36)">
                <circle cx="18" cy="18" r="18" class="cls-5"/>
                <circle cx="18" cy="18" r="17" class="cls-6"/>
            </g>
            <g id="Ellipse_1-18" class="cls-4" data-name="Ellipse 1" transform="translate(252 36)">
                <circle cx="18" cy="18" r="18" class="cls-5"/>
                <circle cx="18" cy="18" r="17" class="cls-6"/>
            </g>
            <g id="Ellipse_1-19" class="cls-4" data-name="Ellipse 1" transform="translate(288 36)">
                <circle cx="18" cy="18" r="18" class="cls-5"/>
                <circle cx="18" cy="18" r="17" class="cls-6"/>
            </g>
            <g id="Ellipse_1-20" class="cls-4" data-name="Ellipse 1" transform="translate(324 36)">
                <circle cx="18" cy="18" r="18" class="cls-5"/>
                <circle cx="18" cy="18" r="17" class="cls-6"/>
            </g>
            <g id="Ellipse_1-21" class="cls-4" data-name="Ellipse 1" transform="translate(0 72)">
                <circle cx="18" cy="18" r="18" class="cls-5"/>
                <circle cx="18" cy="18" r="17" class="cls-6"/>
            </g>
            <g id="Ellipse_1-22" class="cls-4" data-name="Ellipse 1" transform="translate(36 72)">
                <circle cx="18" cy="18" r="18" class="cls-5"/>
                <circle cx="18" cy="18" r="17" class="cls-6"/>
            </g>
            <g id="Ellipse_1-23" class="cls-4" data-name="Ellipse 1" transform="translate(72 72)">
                <circle cx="18" cy="18" r="18" class="cls-5"/>
                <circle cx="18" cy="18" r="17" class="cls-6"/>
            </g>
            <g id="Ellipse_1-24" class="cls-4" data-name="Ellipse 1" transform="translate(108 72)">
                <circle cx="18" cy="18" r="18" class="cls-5"/>
                <circle cx="18" cy="18" r="17" class="cls-6"/>
            </g>
            <g id="Ellipse_1-25" class="cls-4" data-name="Ellipse 1" transform="translate(144 72)">
                <circle cx="18" cy="18" r="18" class="cls-5"/>
                <circle cx="18" cy="18" r="17" class="cls-6"/>
            </g>
            <g id="Ellipse_1-26" class="cls-4" data-name="Ellipse 1" transform="translate(180 72)">
                <circle cx="18" cy="18" r="18" class="cls-5"/>
                <circle cx="18" cy="18" r="17" class="cls-6"/>
            </g>
            <g id="Ellipse_1-27" class="cls-4" data-name="Ellipse 1" transform="translate(216 72)">
                <circle cx="18" cy="18" r="18" class="cls-5"/>
                <circle cx="18" cy="18" r="17" class="cls-6"/>
            </g>
            <g id="Ellipse_1-28" class="cls-4" data-name="Ellipse 1" transform="translate(252 72)">
                <circle cx="18" cy="18" r="18" class="cls-5"/>
                <circle cx="18" cy="18" r="17" class="cls-6"/>
            </g>
            <g id="Ellipse_1-29" class="cls-4" data-name="Ellipse 1" transform="translate(288 72)">
                <circle cx="18" cy="18" r="18" class="cls-5"/>
                <circle cx="18" cy="18" r="17" class="cls-6"/>
            </g>
            <g id="Ellipse_1-30" class="cls-4" data-name="Ellipse 1" transform="translate(324 72)">
                <circle cx="18" cy="18" r="18" class="cls-5"/>
                <circle cx="18" cy="18" r="17" class="cls-6"/>
            </g>
            <g id="Ellipse_1-31" class="cls-4" data-name="Ellipse 1" transform="translate(0 106.588)">
                <circle cx="18" cy="18" r="18" class="cls-5"/>
                <circle cx="18" cy="18" r="17" class="cls-6"/>
            </g>
            <g id="Ellipse_1-32" class="cls-4" data-name="Ellipse 1" transform="translate(36 106.588)">
                <circle cx="18" cy="18" r="18" class="cls-5"/>
                <circle cx="18" cy="18" r="17" class="cls-6"/>
            </g>
            <g id="Ellipse_1-33" class="cls-4" data-name="Ellipse 1" transform="translate(72 106.588)">
                <circle cx="18" cy="18" r="18" class="cls-5"/>
                <circle cx="18" cy="18" r="17" class="cls-6"/>
            </g>
            <g id="Ellipse_1-34" class="cls-4" data-name="Ellipse 1" transform="translate(108 106.588)">
                <circle cx="18" cy="18" r="18" class="cls-5"/>
                <circle cx="18" cy="18" r="17" class="cls-6"/>
            </g>
            <g id="Ellipse_1-35" class="cls-4" data-name="Ellipse 1" transform="translate(144 106.588)">
                <circle cx="18" cy="18" r="18" class="cls-5"/>
                <circle cx="18" cy="18" r="17" class="cls-6"/>
            </g>
            <g id="Ellipse_1-36" class="cls-4" data-name="Ellipse 1" transform="translate(180 106.588)">
                <circle cx="18" cy="18" r="18" class="cls-5"/>
                <circle cx="18" cy="18" r="17" class="cls-6"/>
            </g>
            <g id="Ellipse_1-37" class="cls-4" data-name="Ellipse 1" transform="translate(216 106.588)">
                <circle cx="18" cy="18" r="18" class="cls-5"/>
                <circle cx="18" cy="18" r="17" class="cls-6"/>
            </g>
            <g id="Ellipse_1-38" class="cls-4" data-name="Ellipse 1" transform="translate(252 106.588)">
                <circle cx="18" cy="18" r="18" class="cls-5"/>
                <circle cx="18" cy="18" r="17" class="cls-6"/>
            </g>
            <g id="Ellipse_1-39" class="cls-4" data-name="Ellipse 1" transform="translate(288 106.588)">
                <circle cx="18" cy="18" r="18" class="cls-5"/>
                <circle cx="18" cy="18" r="17" class="cls-6"/>
            </g>
            <g id="Ellipse_1-40" class="cls-4" data-name="Ellipse 1" transform="translate(324 106.588)">
                <circle cx="18" cy="18" r="18" class="cls-5"/>
                <circle cx="18" cy="18" r="17" class="cls-6"/>
            </g>
            <g id="Ellipse_1-41" class="cls-4" data-name="Ellipse 1" transform="translate(0 142.118)">
                <circle cx="18" cy="18" r="18" class="cls-5"/>
                <circle cx="18" cy="18" r="17" class="cls-6"/>
            </g>
            <g id="Ellipse_1-42" class="cls-4" data-name="Ellipse 1" transform="translate(36 142.118)">
                <circle cx="18" cy="18" r="18" class="cls-5"/>
                <circle cx="18" cy="18" r="17" class="cls-6"/>
            </g>
            <g id="Ellipse_1-43" class="cls-4" data-name="Ellipse 1" transform="translate(72 142.118)">
                <circle cx="18" cy="18" r="18" class="cls-5"/>
                <circle cx="18" cy="18" r="17" class="cls-6"/>
            </g>
            <g id="Ellipse_1-44" class="cls-4" data-name="Ellipse 1" transform="translate(108 142.118)">
                <circle cx="18" cy="18" r="18" class="cls-5"/>
                <circle cx="18" cy="18" r="17" class="cls-6"/>
            </g>
            <g id="Ellipse_1-45" class="cls-4" data-name="Ellipse 1" transform="translate(144 142.118)">
                <circle cx="18" cy="18" r="18" class="cls-5"/>
                <circle cx="18" cy="18" r="17" class="cls-6"/>
            </g>
            <g id="Ellipse_1-46" class="cls-4" data-name="Ellipse 1" transform="translate(180 142.118)">
                <circle cx="18" cy="18" r="18" class="cls-5"/>
                <circle cx="18" cy="18" r="17" class="cls-6"/>
            </g>
            <g id="Ellipse_1-47" class="cls-4" data-name="Ellipse 1" transform="translate(216 142.118)">
                <circle cx="18" cy="18" r="18" class="cls-5"/>
                <circle cx="18" cy="18" r="17" class="cls-6"/>
            </g>
            <g id="Ellipse_1-48" class="cls-4" data-name="Ellipse 1" transform="translate(252 142.118)">
                <circle cx="18" cy="18" r="18" class="cls-5"/>
                <circle cx="18" cy="18" r="17" class="cls-6"/>
            </g>
            <g id="Ellipse_1-49" class="cls-4" data-name="Ellipse 1" transform="translate(288 142.118)">
                <circle cx="18" cy="18" r="18" class="cls-5"/>
                <circle cx="18" cy="18" r="17" class="cls-6"/>
            </g>
            <g id="Ellipse_1-50" class="cls-4" data-name="Ellipse 1" transform="translate(324 142.118)">
                <circle cx="18" cy="18" r="18" class="cls-5"/>
                <circle cx="18" cy="18" r="17" class="cls-6"/>
            </g>
            <g id="Ellipse_1-51" class="cls-4" data-name="Ellipse 1" transform="translate(0 177.647)">
                <circle cx="18" cy="18" r="18" class="cls-5"/>
                <circle cx="18" cy="18" r="17" class="cls-6"/>
            </g>
            <g id="Ellipse_1-52" class="cls-4" data-name="Ellipse 1" transform="translate(36 177.647)">
                <circle cx="18" cy="18" r="18" class="cls-5"/>
                <circle cx="18" cy="18" r="17" class="cls-6"/>
            </g>
            <g id="Ellipse_1-53" class="cls-4" data-name="Ellipse 1" transform="translate(72 177.647)">
                <circle cx="18" cy="18" r="18" class="cls-5"/>
                <circle cx="18" cy="18" r="17" class="cls-6"/>
            </g>
            <g id="Ellipse_1-54" class="cls-4" data-name="Ellipse 1" transform="translate(108 177.647)">
                <circle cx="18" cy="18" r="18" class="cls-5"/>
                <circle cx="18" cy="18" r="17" class="cls-6"/>
            </g>
            <g id="Ellipse_1-55" class="cls-4" data-name="Ellipse 1" transform="translate(144 177.647)">
                <circle cx="18" cy="18" r="18" class="cls-5"/>
                <circle cx="18" cy="18" r="17" class="cls-6"/>
            </g>
            <g id="Ellipse_1-56" class="cls-4" data-name="Ellipse 1" transform="translate(180 177.647)">
                <circle cx="18" cy="18" r="18" class="cls-5"/>
                <circle cx="18" cy="18" r="17" class="cls-6"/>
            </g>
            <g id="Ellipse_1-57" class="cls-4" data-name="Ellipse 1" transform="translate(216 177.647)">
                <circle cx="18" cy="18" r="18" class="cls-5"/>
                <circle cx="18" cy="18" r="17" class="cls-6"/>
            </g>
            <g id="Ellipse_1-58" class="cls-4" data-name="Ellipse 1" transform="translate(252 177.647)">
                <circle cx="18" cy="18" r="18" class="cls-5"/>
                <circle cx="18" cy="18" r="17" class="cls-6"/>
            </g>
            <g id="Ellipse_1-59" class="cls-4" data-name="Ellipse 1" transform="translate(288 177.647)">
                <circle cx="18" cy="18" r="18" class="cls-5"/>
                <circle cx="18" cy="18" r="17" class="cls-6"/>
            </g>
            <g id="Ellipse_1-60" class="cls-4" data-name="Ellipse 1" transform="translate(324 177.647)">
                <circle cx="18" cy="18" r="18" class="cls-5"/>
                <circle cx="18" cy="18" r="17" class="cls-6"/>
            </g>
            <g id="Ellipse_1-61" class="cls-4" data-name="Ellipse 1" transform="translate(0 213.176)">
                <circle cx="18" cy="18" r="18" class="cls-5"/>
                <circle cx="18" cy="18" r="17" class="cls-6"/>
            </g>
            <g id="Ellipse_1-62" class="cls-4" data-name="Ellipse 1" transform="translate(36 213.176)">
                <circle cx="18" cy="18" r="18" class="cls-5"/>
                <circle cx="18" cy="18" r="17" class="cls-6"/>
            </g>
            <g id="Ellipse_1-63" class="cls-4" data-name="Ellipse 1" transform="translate(72 213.176)">
                <circle cx="18" cy="18" r="18" class="cls-5"/>
                <circle cx="18" cy="18" r="17" class="cls-6"/>
            </g>
            <g id="Ellipse_1-64" class="cls-4" data-name="Ellipse 1" transform="translate(108 213.176)">
                <circle cx="18" cy="18" r="18" class="cls-5"/>
                <circle cx="18" cy="18" r="17" class="cls-6"/>
            </g>
            <g id="Ellipse_1-65" class="cls-4" data-name="Ellipse 1" transform="translate(144 213.176)">
                <circle cx="18" cy="18" r="18" class="cls-5"/>
                <circle cx="18" cy="18" r="17" class="cls-6"/>
            </g>
            <g id="Ellipse_1-66" class="cls-4" data-name="Ellipse 1" transform="translate(180 213.176)">
                <circle cx="18" cy="18" r="18" class="cls-5"/>
                <circle cx="18" cy="18" r="17" class="cls-6"/>
            </g>
            <g id="Ellipse_1-67" class="cls-4" data-name="Ellipse 1" transform="translate(216 213.176)">
                <circle cx="18" cy="18" r="18" class="cls-5"/>
                <circle cx="18" cy="18" r="17" class="cls-6"/>
            </g>
            <g id="Ellipse_1-68" class="cls-4" data-name="Ellipse 1" transform="translate(252 213.176)">
                <circle cx="18" cy="18" r="18" class="cls-5"/>
                <circle cx="18" cy="18" r="17" class="cls-6"/>
            </g>
            <g id="Ellipse_1-69" class="cls-4" data-name="Ellipse 1" transform="translate(288 213.176)">
                <circle cx="18" cy="18" r="18" class="cls-5"/>
                <circle cx="18" cy="18" r="17" class="cls-6"/>
            </g>
            <g id="Ellipse_1-70" class="cls-4" data-name="Ellipse 1" transform="translate(324 213.176)">
                <circle cx="18" cy="18" r="18" class="cls-5"/>
                <circle cx="18" cy="18" r="17" class="cls-6"/>
            </g>
            <g id="Ellipse_1-71" class="cls-4" data-name="Ellipse 1" transform="translate(0 248.706)">
                <circle cx="18" cy="18" r="18" class="cls-5"/>
                <circle cx="18" cy="18" r="17" class="cls-6"/>
            </g>
            <g id="Ellipse_1-72" class="cls-4" data-name="Ellipse 1" transform="translate(36 248.706)">
                <circle cx="18" cy="18" r="18" class="cls-5"/>
                <circle cx="18" cy="18" r="17" class="cls-6"/>
            </g>
            <g id="Ellipse_1-73" class="cls-4" data-name="Ellipse 1" transform="translate(72 248.706)">
                <circle cx="18" cy="18" r="18" class="cls-5"/>
                <circle cx="18" cy="18" r="17" class="cls-6"/>
            </g>
            <g id="Ellipse_1-74" class="cls-4" data-name="Ellipse 1" transform="translate(108 248.706)">
                <circle cx="18" cy="18" r="18" class="cls-5"/>
                <circle cx="18" cy="18" r="17" class="cls-6"/>
            </g>
            <g id="Ellipse_1-75" class="cls-4" data-name="Ellipse 1" transform="translate(144 248.706)">
                <circle cx="18" cy="18" r="18" class="cls-5"/>
                <circle cx="18" cy="18" r="17" class="cls-6"/>
            </g>
            <g id="Ellipse_1-76" class="cls-4" data-name="Ellipse 1" transform="translate(180 248.706)">
                <circle cx="18" cy="18" r="18" class="cls-5"/>
                <circle cx="18" cy="18" r="17" class="cls-6"/>
            </g>
            <g id="Ellipse_1-77" class="cls-4" data-name="Ellipse 1" transform="translate(216 248.706)">
                <circle cx="18" cy="18" r="18" class="cls-5"/>
                <circle cx="18" cy="18" r="17" class="cls-6"/>
            </g>
            <g id="Ellipse_1-78" class="cls-4" data-name="Ellipse 1" transform="translate(252 248.706)">
                <circle cx="18" cy="18" r="18" class="cls-5"/>
                <circle cx="18" cy="18" r="17" class="cls-6"/>
            </g>
            <g id="Ellipse_1-79" class="cls-4" data-name="Ellipse 1" transform="translate(288 248.706)">
                <circle cx="18" cy="18" r="18" class="cls-5"/>
                <circle cx="18" cy="18" r="17" class="cls-6"/>
            </g>
            <g id="Ellipse_1-80" class="cls-4" data-name="Ellipse 1" transform="translate(324 248.706)">
                <circle cx="18" cy="18" r="18" class="cls-5"/>
                <circle cx="18" cy="18" r="17" class="cls-6"/>
            </g>
            <g id="Ellipse_1-81" class="cls-4" data-name="Ellipse 1" transform="translate(0 284.235)">
                <circle cx="18" cy="18" r="18" class="cls-5"/>
                <circle cx="18" cy="18" r="17" class="cls-6"/>
            </g>
            <g id="Ellipse_1-82" class="cls-4" data-name="Ellipse 1" transform="translate(36 284.235)">
                <circle cx="18" cy="18" r="18" class="cls-5"/>
                <circle cx="18" cy="18" r="17" class="cls-6"/>
            </g>
            <g id="Ellipse_1-83" class="cls-4" data-name="Ellipse 1" transform="translate(72 284.235)">
                <circle cx="18" cy="18" r="18" class="cls-5"/>
                <circle cx="18" cy="18" r="17" class="cls-6"/>
            </g>
            <g id="Ellipse_1-84" class="cls-4" data-name="Ellipse 1" transform="translate(108 284.235)">
                <circle cx="18" cy="18" r="18" class="cls-5"/>
                <circle cx="18" cy="18" r="17" class="cls-6"/>
            </g>
            <g id="Ellipse_1-85" class="cls-4" data-name="Ellipse 1" transform="translate(144 284.235)">
                <circle cx="18" cy="18" r="18" class="cls-5"/>
                <circle cx="18" cy="18" r="17" class="cls-6"/>
            </g>
            <g id="Ellipse_1-86" class="cls-4" data-name="Ellipse 1" transform="translate(180 284.235)">
                <circle cx="18" cy="18" r="18" class="cls-5"/>
                <circle cx="18" cy="18" r="17" class="cls-6"/>
            </g>
            <g id="Ellipse_1-87" class="cls-4" data-name="Ellipse 1" transform="translate(216 284.235)">
                <circle cx="18" cy="18" r="18" class="cls-5"/>
                <circle cx="18" cy="18" r="17" class="cls-6"/>
            </g>
            <g id="Ellipse_1-88" class="cls-4" data-name="Ellipse 1" transform="translate(252 284.235)">
                <circle cx="18" cy="18" r="18" class="cls-5"/>
                <circle cx="18" cy="18" r="17" class="cls-6"/>
            </g>
            <g id="Ellipse_1-89" class="cls-4" data-name="Ellipse 1" transform="translate(288 284.235)">
                <circle cx="18" cy="18" r="18" class="cls-5"/>
                <circle cx="18" cy="18" r="17" class="cls-6"/>
            </g>
            <g id="Ellipse_1-90" class="cls-4" data-name="Ellipse 1" transform="translate(324 284.235)">
                <circle cx="18" cy="18" r="18" class="cls-5"/>
                <circle cx="18" cy="18" r="17" class="cls-6"/>
            </g>
            <g id="Ellipse_1-91" class="cls-4" data-name="Ellipse 1" transform="translate(0 319.765)">
                <circle cx="18" cy="18" r="18" class="cls-5"/>
                <circle cx="18" cy="18" r="17" class="cls-6"/>
            </g>
            <g id="Ellipse_1-92" class="cls-4" data-name="Ellipse 1" transform="translate(36 319.765)">
                <circle cx="18" cy="18" r="18" class="cls-5"/>
                <circle cx="18" cy="18" r="17" class="cls-6"/>
            </g>
            <g id="Ellipse_1-93" class="cls-4" data-name="Ellipse 1" transform="translate(72 319.765)">
                <circle cx="18" cy="18" r="18" class="cls-5"/>
                <circle cx="18" cy="18" r="17" class="cls-6"/>
            </g>
            <g id="Ellipse_1-94" class="cls-4" data-name="Ellipse 1" transform="translate(108 319.765)">
                <circle cx="18" cy="18" r="18" class="cls-5"/>
                <circle cx="18" cy="18" r="17" class="cls-6"/>
            </g>
            <g id="Ellipse_1-95" class="cls-4" data-name="Ellipse 1" transform="translate(144 319.765)">
                <circle cx="18" cy="18" r="18" class="cls-5"/>
                <circle cx="18" cy="18" r="17" class="cls-6"/>
            </g>
            <g id="Ellipse_1-96" class="cls-4" data-name="Ellipse 1" transform="translate(180 319.765)">
                <circle cx="18" cy="18" r="18" class="cls-5"/>
                <circle cx="18" cy="18" r="17" class="cls-6"/>
            </g>
            <g id="Ellipse_1-97" class="cls-4" data-name="Ellipse 1" transform="translate(216 319.765)">
                <circle cx="18" cy="18" r="18" class="cls-5"/>
                <circle cx="18" cy="18" r="17" class="cls-6"/>
            </g>
            <g id="Ellipse_1-98" class="cls-4" data-name="Ellipse 1" transform="translate(252 319.765)">
                <circle cx="18" cy="18" r="18" class="cls-5"/>
                <circle cx="18" cy="18" r="17" class="cls-6"/>
            </g>
            <g id="Ellipse_1-99" class="cls-4" data-name="Ellipse 1" transform="translate(288 319.765)">
                <circle cx="18" cy="18" r="18" class="cls-5"/>
                <circle cx="18" cy="18" r="17" class="cls-6"/>
            </g>
            <g id="Ellipse_1-100" class="cls-4" data-name="Ellipse 1" transform="translate(324 319.765)">
                <circle cx="18" cy="18" r="18" class="cls-5"/>
                <circle cx="18" cy="18" r="17" class="cls-6"/>
            </g>
            <g id="Ellipse_1-101" class="cls-4" data-name="Ellipse 1" transform="translate(0 355.294)">
                <circle cx="18" cy="18" r="18" class="cls-5"/>
                <circle cx="18" cy="18" r="17" class="cls-6"/>
            </g>
            <g id="Ellipse_1-102" class="cls-4" data-name="Ellipse 1" transform="translate(36 355.294)">
                <circle cx="18" cy="18" r="18" class="cls-5"/>
                <circle cx="18" cy="18" r="17" class="cls-6"/>
            </g>
            <g id="Ellipse_1-103" class="cls-4" data-name="Ellipse 1" transform="translate(72 355.294)">
                <circle cx="18" cy="18" r="18" class="cls-5"/>
                <circle cx="18" cy="18" r="17" class="cls-6"/>
            </g>
            <g id="Ellipse_1-104" class="cls-4" data-name="Ellipse 1" transform="translate(108 355.294)">
                <circle cx="18" cy="18" r="18" class="cls-5"/>
                <circle cx="18" cy="18" r="17" class="cls-6"/>
            </g>
            <g id="Ellipse_1-105" class="cls-4" data-name="Ellipse 1" transform="translate(144 355.294)">
                <circle cx="18" cy="18" r="18" class="cls-5"/>
                <circle cx="18" cy="18" r="17" class="cls-6"/>
            </g>
            <g id="Ellipse_1-106" class="cls-4" data-name="Ellipse 1" transform="translate(180 355.294)">
                <circle cx="18" cy="18" r="18" class="cls-5"/>
                <circle cx="18" cy="18" r="17" class="cls-6"/>
            </g>
            <g id="Ellipse_1-107" class="cls-4" data-name="Ellipse 1" transform="translate(216 355.294)">
                <circle cx="18" cy="18" r="18" class="cls-5"/>
                <circle cx="18" cy="18" r="17" class="cls-6"/>
            </g>
            <g id="Ellipse_1-108" class="cls-4" data-name="Ellipse 1" transform="translate(252 355.294)">
                <circle cx="18" cy="18" r="18" class="cls-5"/>
                <circle cx="18" cy="18" r="17" class="cls-6"/>
            </g>
            <g id="Ellipse_1-109" class="cls-4" data-name="Ellipse 1" transform="translate(288 355.294)">
                <circle cx="18" cy="18" r="18" class="cls-5"/>
                <circle cx="18" cy="18" r="17" class="cls-6"/>
            </g>
            <g id="Ellipse_1-110" class="cls-4" data-name="Ellipse 1" transform="translate(324 355.294)">
                <circle cx="18" cy="18" r="18" class="cls-5"/>
                <circle cx="18" cy="18" r="17" class="cls-6"/>
            </g>
            <g id="Ellipse_1-111" class="cls-4" data-name="Ellipse 1" transform="translate(0 390.824)">
                <circle cx="18" cy="18" r="18" class="cls-5"/>
                <circle cx="18" cy="18" r="17" class="cls-6"/>
            </g>
            <g id="Ellipse_1-112" class="cls-4" data-name="Ellipse 1" transform="translate(36 390.824)">
                <circle cx="18" cy="18" r="18" class="cls-5"/>
                <circle cx="18" cy="18" r="17" class="cls-6"/>
            </g>
            <g id="Ellipse_1-113" class="cls-4" data-name="Ellipse 1" transform="translate(72 390.824)">
                <circle cx="18" cy="18" r="18" class="cls-5"/>
                <circle cx="18" cy="18" r="17" class="cls-6"/>
            </g>
            <g id="Ellipse_1-114" class="cls-4" data-name="Ellipse 1" transform="translate(108 390.824)">
                <circle cx="18" cy="18" r="18" class="cls-5"/>
                <circle cx="18" cy="18" r="17" class="cls-6"/>
            </g>
            <g id="Ellipse_1-115" class="cls-4" data-name="Ellipse 1" transform="translate(144 390.824)">
                <circle cx="18" cy="18" r="18" class="cls-5"/>
                <circle cx="18" cy="18" r="17" class="cls-6"/>
            </g>
            <g id="Ellipse_1-116" class="cls-4" data-name="Ellipse 1" transform="translate(180 390.824)">
                <circle cx="18" cy="18" r="18" class="cls-5"/>
                <circle cx="18" cy="18" r="17" class="cls-6"/>
            </g>
            <g id="Ellipse_1-117" class="cls-4" data-name="Ellipse 1" transform="translate(216 390.824)">
                <circle cx="18" cy="18" r="18" class="cls-5"/>
                <circle cx="18" cy="18" r="17" class="cls-6"/>
            </g>
            <g id="Ellipse_1-118" class="cls-4" data-name="Ellipse 1" transform="translate(252 390.824)">
                <circle cx="18" cy="18" r="18" class="cls-5"/>
                <circle cx="18" cy="18" r="17" class="cls-6"/>
            </g>
            <g id="Ellipse_1-119" class="cls-4" data-name="Ellipse 1" transform="translate(288 390.824)">
                <circle cx="18" cy="18" r="18" class="cls-5"/>
                <circle cx="18" cy="18" r="17" class="cls-6"/>
            </g>
            <g id="Ellipse_1-120" class="cls-4" data-name="Ellipse 1" transform="translate(324 390.824)">
                <circle cx="18" cy="18" r="18" class="cls-5"/>
                <circle cx="18" cy="18" r="17" class="cls-6"/>
            </g>
            <g id="Ellipse_1-121" class="cls-4" data-name="Ellipse 1" transform="translate(0 426.353)">
                <circle cx="18" cy="18" r="18" class="cls-5"/>
                <circle cx="18" cy="18" r="17" class="cls-6"/>
            </g>
            <g id="Ellipse_1-122" class="cls-4" data-name="Ellipse 1" transform="translate(36 426.353)">
                <circle cx="18" cy="18" r="18" class="cls-5"/>
                <circle cx="18" cy="18" r="17" class="cls-6"/>
            </g>
            <g id="Ellipse_1-123" class="cls-4" data-name="Ellipse 1" transform="translate(72 426.353)">
                <circle cx="18" cy="18" r="18" class="cls-5"/>
                <circle cx="18" cy="18" r="17" class="cls-6"/>
            </g>
            <g id="Ellipse_1-124" class="cls-4" data-name="Ellipse 1" transform="translate(108 426.353)">
                <circle cx="18" cy="18" r="18" class="cls-5"/>
                <circle cx="18" cy="18" r="17" class="cls-6"/>
            </g>
            <g id="Ellipse_1-125" class="cls-4" data-name="Ellipse 1" transform="translate(144 426.353)">
                <circle cx="18" cy="18" r="18" class="cls-5"/>
                <circle cx="18" cy="18" r="17" class="cls-6"/>
            </g>
            <g id="Ellipse_1-126" class="cls-4" data-name="Ellipse 1" transform="translate(180 426.353)">
                <circle cx="18" cy="18" r="18" class="cls-5"/>
                <circle cx="18" cy="18" r="17" class="cls-6"/>
            </g>
            <g id="Ellipse_1-127" class="cls-4" data-name="Ellipse 1" transform="translate(216 426.353)">
                <circle cx="18" cy="18" r="18" class="cls-5"/>
                <circle cx="18" cy="18" r="17" class="cls-6"/>
            </g>
            <g id="Ellipse_1-128" class="cls-4" data-name="Ellipse 1" transform="translate(252 426.353)">
                <circle cx="18" cy="18" r="18" class="cls-5"/>
                <circle cx="18" cy="18" r="17" class="cls-6"/>
            </g>
            <g id="Ellipse_1-129" class="cls-4" data-name="Ellipse 1" transform="translate(288 426.353)">
                <circle cx="18" cy="18" r="18" class="cls-5"/>
                <circle cx="18" cy="18" r="17" class="cls-6"/>
            </g>
            <g id="Ellipse_1-130" class="cls-4" data-name="Ellipse 1" transform="translate(324 426.353)">
                <circle cx="18" cy="18" r="18" class="cls-5"/>
                <circle cx="18" cy="18" r="17" class="cls-6"/>
            </g>
            <g id="Ellipse_1-131" class="cls-4" data-name="Ellipse 1" transform="translate(0 461.882)">
                <circle cx="18" cy="18" r="18" class="cls-5"/>
                <circle cx="18" cy="18" r="17" class="cls-6"/>
            </g>
            <g id="Ellipse_1-132" class="cls-4" data-name="Ellipse 1" transform="translate(36 461.882)">
                <circle cx="18" cy="18" r="18" class="cls-5"/>
                <circle cx="18" cy="18" r="17" class="cls-6"/>
            </g>
            <g id="Ellipse_1-133" class="cls-4" data-name="Ellipse 1" transform="translate(72 461.882)">
                <circle cx="18" cy="18" r="18" class="cls-5"/>
                <circle cx="18" cy="18" r="17" class="cls-6"/>
            </g>
            <g id="Ellipse_1-134" class="cls-4" data-name="Ellipse 1" transform="translate(108 461.882)">
                <circle cx="18" cy="18" r="18" class="cls-5"/>
                <circle cx="18" cy="18" r="17" class="cls-6"/>
            </g>
            <g id="Ellipse_1-135" class="cls-4" data-name="Ellipse 1" transform="translate(144 461.882)">
                <circle cx="18" cy="18" r="18" class="cls-5"/>
                <circle cx="18" cy="18" r="17" class="cls-6"/>
            </g>
            <g id="Ellipse_1-136" class="cls-4" data-name="Ellipse 1" transform="translate(180 461.882)">
                <circle cx="18" cy="18" r="18" class="cls-5"/>
                <circle cx="18" cy="18" r="17" class="cls-6"/>
            </g>
            <g id="Ellipse_1-137" class="cls-4" data-name="Ellipse 1" transform="translate(216 461.882)">
                <circle cx="18" cy="18" r="18" class="cls-5"/>
                <circle cx="18" cy="18" r="17" class="cls-6"/>
            </g>
            <g id="Ellipse_1-138" class="cls-4" data-name="Ellipse 1" transform="translate(252 461.882)">
                <circle cx="18" cy="18" r="18" class="cls-5"/>
                <circle cx="18" cy="18" r="17" class="cls-6"/>
            </g>
            <g id="Ellipse_1-139" class="cls-4" data-name="Ellipse 1" transform="translate(288 461.882)">
                <circle cx="18" cy="18" r="18" class="cls-5"/>
                <circle cx="18" cy="18" r="17" class="cls-6"/>
            </g>
            <g id="Ellipse_1-140" class="cls-4" data-name="Ellipse 1" transform="translate(324 461.882)">
                <circle cx="18" cy="18" r="18" class="cls-5"/>
                <circle cx="18" cy="18" r="17" class="cls-6"/>
            </g>
            <g id="Ellipse_1-141" class="cls-4" data-name="Ellipse 1" transform="translate(0 497.412)">
                <circle cx="18" cy="18" r="18" class="cls-5"/>
                <circle cx="18" cy="18" r="17" class="cls-6"/>
            </g>
            <g id="Ellipse_1-142" class="cls-4" data-name="Ellipse 1" transform="translate(36 497.412)">
                <circle cx="18" cy="18" r="18" class="cls-5"/>
                <circle cx="18" cy="18" r="17" class="cls-6"/>
            </g>
            <g id="Ellipse_1-143" class="cls-4" data-name="Ellipse 1" transform="translate(72 497.412)">
                <circle cx="18" cy="18" r="18" class="cls-5"/>
                <circle cx="18" cy="18" r="17" class="cls-6"/>
            </g>
            <g id="Ellipse_1-144" class="cls-4" data-name="Ellipse 1" transform="translate(108 497.412)">
                <circle cx="18" cy="18" r="18" class="cls-5"/>
                <circle cx="18" cy="18" r="17" class="cls-6"/>
            </g>
            <g id="Ellipse_1-145" class="cls-4" data-name="Ellipse 1" transform="translate(144 497.412)">
                <circle cx="18" cy="18" r="18" class="cls-5"/>
                <circle cx="18" cy="18" r="17" class="cls-6"/>
            </g>
            <g id="Ellipse_1-146" class="cls-4" data-name="Ellipse 1" transform="translate(180 497.412)">
                <circle cx="18" cy="18" r="18" class="cls-5"/>
                <circle cx="18" cy="18" r="17" class="cls-6"/>
            </g>
            <g id="Ellipse_1-147" class="cls-4" data-name="Ellipse 1" transform="translate(216 497.412)">
                <circle cx="18" cy="18" r="18" class="cls-5"/>
                <circle cx="18" cy="18" r="17" class="cls-6"/>
            </g>
            <g id="Ellipse_1-148" class="cls-4" data-name="Ellipse 1" transform="translate(252 497.412)">
                <circle cx="18" cy="18" r="18" class="cls-5"/>
                <circle cx="18" cy="18" r="17" class="cls-6"/>
            </g>
            <g id="Ellipse_1-149" class="cls-4" data-name="Ellipse 1" transform="translate(288 497.412)">
                <circle cx="18" cy="18" r="18" class="cls-5"/>
                <circle cx="18" cy="18" r="17" class="cls-6"/>
            </g>
            <g id="Ellipse_1-150" class="cls-4" data-name="Ellipse 1" transform="translate(324 497.412)">
                <circle cx="18" cy="18" r="18" class="cls-5"/>
                <circle cx="18" cy="18" r="17" class="cls-6"/>
            </g>
            <g id="Ellipse_1-151" class="cls-4" data-name="Ellipse 1" transform="translate(0 532)">
                <circle cx="18" cy="18" r="18" class="cls-5"/>
                <circle cx="18" cy="18" r="17" class="cls-6"/>
            </g>
            <g id="Ellipse_1-152" class="cls-4" data-name="Ellipse 1" transform="translate(36 532)">
                <circle cx="18" cy="18" r="18" class="cls-5"/>
                <circle cx="18" cy="18" r="17" class="cls-6"/>
            </g>
            <g id="Ellipse_1-153" class="cls-4" data-name="Ellipse 1" transform="translate(72 532)">
                <circle cx="18" cy="18" r="18" class="cls-5"/>
                <circle cx="18" cy="18" r="17" class="cls-6"/>
            </g>
            <g id="Ellipse_1-154" class="cls-4" data-name="Ellipse 1" transform="translate(108 532)">
                <circle cx="18" cy="18" r="18" class="cls-5"/>
                <circle cx="18" cy="18" r="17" class="cls-6"/>
            </g>
            <g id="Ellipse_1-155" class="cls-4" data-name="Ellipse 1" transform="translate(144 532)">
                <circle cx="18" cy="18" r="18" class="cls-5"/>
                <circle cx="18" cy="18" r="17" class="cls-6"/>
            </g>
            <g id="Ellipse_1-156" class="cls-4" data-name="Ellipse 1" transform="translate(180 532)">
                <circle cx="18" cy="18" r="18" class="cls-5"/>
                <circle cx="18" cy="18" r="17" class="cls-6"/>
            </g>
            <g id="Ellipse_1-157" class="cls-4" data-name="Ellipse 1" transform="translate(216 532)">
                <circle cx="18" cy="18" r="18" class="cls-5"/>
                <circle cx="18" cy="18" r="17" class="cls-6"/>
            </g>
            <g id="Ellipse_1-158" class="cls-4" data-name="Ellipse 1" transform="translate(252 532)">
                <circle cx="18" cy="18" r="18" class="cls-5"/>
                <circle cx="18" cy="18" r="17" class="cls-6"/>
            </g>
            <g id="Ellipse_1-159" class="cls-4" data-name="Ellipse 1" transform="translate(288 532)">
                <circle cx="18" cy="18" r="18" class="cls-5"/>
                <circle cx="18" cy="18" r="17" class="cls-6"/>
            </g>
            <g id="Ellipse_1-160" class="cls-4" data-name="Ellipse 1" transform="translate(324 532)">
                <circle cx="18" cy="18" r="18" class="cls-5"/>
                <circle cx="18" cy="18" r="17" class="cls-6"/>
            </g>
            <g id="Ellipse_1-161" class="cls-4" data-name="Ellipse 1" transform="translate(0 568)">
                <circle cx="18" cy="18" r="18" class="cls-5"/>
                <circle cx="18" cy="18" r="17" class="cls-6"/>
            </g>
            <g id="Ellipse_1-162" class="cls-4" data-name="Ellipse 1" transform="translate(36 568)">
                <circle cx="18" cy="18" r="18" class="cls-5"/>
                <circle cx="18" cy="18" r="17" class="cls-6"/>
            </g>
            <g id="Ellipse_1-163" class="cls-4" data-name="Ellipse 1" transform="translate(72 568)">
                <circle cx="18" cy="18" r="18" class="cls-5"/>
                <circle cx="18" cy="18" r="17" class="cls-6"/>
            </g>
            <g id="Ellipse_1-164" class="cls-4" data-name="Ellipse 1" transform="translate(108 568)">
                <circle cx="18" cy="18" r="18" class="cls-5"/>
                <circle cx="18" cy="18" r="17" class="cls-6"/>
            </g>
            <g id="Ellipse_1-165" class="cls-4" data-name="Ellipse 1" transform="translate(144 568)">
                <circle cx="18" cy="18" r="18" class="cls-5"/>
                <circle cx="18" cy="18" r="17" class="cls-6"/>
            </g>
            <g id="Ellipse_1-166" class="cls-4" data-name="Ellipse 1" transform="translate(180 568)">
                <circle cx="18" cy="18" r="18" class="cls-5"/>
                <circle cx="18" cy="18" r="17" class="cls-6"/>
            </g>
            <g id="Ellipse_1-167" class="cls-4" data-name="Ellipse 1" transform="translate(216 568)">
                <circle cx="18" cy="18" r="18" class="cls-5"/>
                <circle cx="18" cy="18" r="17" class="cls-6"/>
            </g>
            <g id="Ellipse_1-168" class="cls-4" data-name="Ellipse 1" transform="translate(252 568)">
                <circle cx="18" cy="18" r="18" class="cls-5"/>
                <circle cx="18" cy="18" r="17" class="cls-6"/>
            </g>
            <g id="Ellipse_1-169" class="cls-4" data-name="Ellipse 1" transform="translate(288 568)">
                <circle cx="18" cy="18" r="18" class="cls-5"/>
                <circle cx="18" cy="18" r="17" class="cls-6"/>
            </g>
            <g id="Ellipse_1-170" class="cls-4" data-name="Ellipse 1" transform="translate(324 568)">
                <circle cx="18" cy="18" r="18" class="cls-5"/>
                <circle cx="18" cy="18" r="17" class="cls-6"/>
            </g>
            <g id="Ellipse_1-171" class="cls-4" data-name="Ellipse 1" transform="translate(0 604)">
                <circle cx="18" cy="18" r="18" class="cls-5"/>
                <circle cx="18" cy="18" r="17" class="cls-6"/>
            </g>
            <g id="Ellipse_1-172" class="cls-4" data-name="Ellipse 1" transform="translate(36 604)">
                <circle cx="18" cy="18" r="18" class="cls-5"/>
                <circle cx="18" cy="18" r="17" class="cls-6"/>
            </g>
            <g id="Ellipse_1-173" class="cls-4" data-name="Ellipse 1" transform="translate(72 604)">
                <circle cx="18" cy="18" r="18" class="cls-5"/>
                <circle cx="18" cy="18" r="17" class="cls-6"/>
            </g>
            <g id="Ellipse_1-174" class="cls-4" data-name="Ellipse 1" transform="translate(108 604)">
                <circle cx="18" cy="18" r="18" class="cls-5"/>
                <circle cx="18" cy="18" r="17" class="cls-6"/>
            </g>
            <g id="Ellipse_1-175" class="cls-4" data-name="Ellipse 1" transform="translate(144 604)">
                <circle cx="18" cy="18" r="18" class="cls-5"/>
                <circle cx="18" cy="18" r="17" class="cls-6"/>
            </g>
            <g id="Ellipse_1-176" class="cls-4" data-name="Ellipse 1" transform="translate(180 604)">
                <circle cx="18" cy="18" r="18" class="cls-5"/>
                <circle cx="18" cy="18" r="17" class="cls-6"/>
            </g>
            <g id="Ellipse_1-177" class="cls-4" data-name="Ellipse 1" transform="translate(216 604)">
                <circle cx="18" cy="18" r="18" class="cls-5"/>
                <circle cx="18" cy="18" r="17" class="cls-6"/>
            </g>
            <g id="Ellipse_1-178" class="cls-4" data-name="Ellipse 1" transform="translate(252 604)">
                <circle cx="18" cy="18" r="18" class="cls-5"/>
                <circle cx="18" cy="18" r="17" class="cls-6"/>
            </g>
            <g id="Ellipse_1-179" class="cls-4" data-name="Ellipse 1" transform="translate(288 604)">
                <circle cx="18" cy="18" r="18" class="cls-5"/>
                <circle cx="18" cy="18" r="17" class="cls-6"/>
            </g>
            <g id="Ellipse_1-180" class="cls-4" data-name="Ellipse 1" transform="translate(324 604)">
                <circle cx="18" cy="18" r="18" class="cls-5"/>
                <circle cx="18" cy="18" r="17" class="cls-6"/>
            </g>
        </g>
    </g>
</svg>
