<svg xmlns="http://www.w3.org/2000/svg" width="28.284" height="28.284" viewBox="0 0 28.284 28.284">
    <defs>
        <style>
            .cls-1{fill:#df5e14}
        </style>
    </defs>
    <g id="ic_local_offer_24px" transform="translate(2.142 2.142)">
        <path id="Path_8" d="M21.41 11.58l-9-9A1.987 1.987 0 0 0 11 2H4a2.006 2.006 0 0 0-2 2v7a2 2 0 0 0 .59 1.42l9 9A1.987 1.987 0 0 0 13 22a1.955 1.955 0 0 0 1.41-.59l7-7A1.955 1.955 0 0 0 22 13a2.02 2.02 0 0 0-.59-1.42zM5.5 7A1.5 1.5 0 1 1 7 5.5 1.5 1.5 0 0 1 5.5 7z" class="cls-1" data-name="Path 8" transform="rotate(-45 12 12)"/>
        <circle id="Ellipse_6" cx="3" cy="3" r="3" class="cls-1" data-name="Ellipse 6" transform="translate(1 9)"/>
    </g>
</svg>
