<svg xmlns="http://www.w3.org/2000/svg" width="91" height="38" viewBox="0 0 91 38">
    <defs>
        <style>
            .cls-1{fill:#df5e14;opacity:.7}.cls-2,.cls-4{fill:#fae7cd}.cls-2{font-size:14px;font-family:Rubik-Black,Rubik;font-weight:800}.cls-3{fill:none}.cls-5,.cls-6{stroke:none}.cls-6{fill:#6d2800}.cls-7{filter:url(#reply)}.cls-8{filter:url(#BACK)}
        </style>
        <filter id="BACK" width="59" height="35" x="30" y="3" filterUnits="userSpaceOnUse">
            <feOffset dy="3"/>
            <feGaussianBlur result="blur" stdDeviation="3"/>
            <feFlood flood-color="#a74107"/>
            <feComposite in2="blur" operator="in"/>
            <feComposite in="SourceGraphic"/>
        </filter>
        <filter id="reply" width="39.652" height="34.448" x="3.158" y="1.36" filterUnits="userSpaceOnUse">
            <feOffset dy="3"/>
            <feGaussianBlur result="blur-2" stdDeviation="3"/>
            <feFlood flood-color="#a74107"/>
            <feComposite in2="blur-2" operator="in"/>
            <feComposite in="SourceGraphic"/>
        </filter>
    </defs>
    <g id="icn_back" transform="translate(-16 -36)">
        <g id="Path_1" class="cls-1" data-name="Path 1">
            <path d="M79 31H12c-2.938 0-5.7-1.144-7.778-3.222A10.928 10.928 0 0 1 1 20v-8c0-2.938 1.144-5.7 3.222-7.778A10.928 10.928 0 0 1 12 1h67c2.938 0 5.7 1.144 7.778 3.222A10.928 10.928 0 0 1 90 12v8c0 2.938-1.144 5.7-3.222 7.778A10.928 10.928 0 0 1 79 31z" class="cls-5" transform="translate(16 36)"/>
            <path d="M12 2C6.486 2 2 6.486 2 12v8c0 5.514 4.486 10 10 10h67c5.514 0 10-4.486 10-10v-8c0-5.514-4.486-10-10-10H12m0-2h67c6.627 0 12 5.373 12 12v8c0 6.627-5.373 12-12 12H12C5.373 32 0 26.627 0 20v-8C0 5.373 5.373 0 12 0z" class="cls-6" transform="translate(16 36)"/>
        </g>
        <g id="Group_7" data-name="Group 7" transform="translate(4)">
            <g class="cls-8" transform="translate(12 36)">
                <text id="BACK-2" class="cls-2" data-name="BACK" transform="translate(39 22)">
                    <tspan x="0" y="0">BACK</tspan>
                </text>
            </g>
            <g id="Group_5" data-name="Group 5" transform="translate(-55 -322)">
                <path id="Rectangle_8" d="M0 0h24v24H0z" class="cls-3" data-name="Rectangle 8" transform="translate(78 362)"/>
                <g class="cls-7" transform="translate(67 358)">
                    <path id="reply-2" d="M21.648 16.236A14.333 14.333 0 0 0 8.066 3.68V2.113C8.066.922 7.418.5 6.862.5a1.764 1.764 0 0 0-1.219.61l-4.9 4.9a2.533 2.533 0 0 0 0 3.578l4.9 4.9a1.764 1.764 0 0 0 1.219.61c.556 0 1.2-.423 1.2-1.613v-1.672a12.438 12.438 0 0 1 12.44 4.875.634.634 0 0 0 1.141-.452zm0 0" class="cls-4" data-name="reply" transform="translate(12.16 6.86)"/>
                </g>
            </g>
        </g>
    </g>
</svg>
