<svg xmlns="http://www.w3.org/2000/svg" id="top" width="360" height="142" viewBox="0 0 360 142">
    <defs>
        <style>
            .cls-1{fill:#fff}.cls-2{clip-path:url(#clip-path)}.cls-3{fill:url(#linear-gradient)}.cls-4{fill:url(#linear-gradient-2)}.cls-5,.cls-6{stroke:none}.cls-6{fill:#82260b}
        </style>
        <clipPath id="clip-path">
            <path id="Rectangle_7" d="M0 0h360v142H0z" class="cls-1" data-name="Rectangle 7"/>
        </clipPath>
        <linearGradient id="linear-gradient" x1=".5" x2=".5" y2="1" gradientUnits="objectBoundingBox">
            <stop offset="0" stop-color="#7c220b"/>
            <stop offset="1" stop-color="#ec6d12"/>
        </linearGradient>
        <linearGradient id="linear-gradient-2" x1=".5" x2=".5" y2="1" gradientUnits="objectBoundingBox">
            <stop offset="0" stop-color="#fbeedc"/>
            <stop offset="1" stop-color="#e2cab1"/>
        </linearGradient>
    </defs>
    <g id="top-2" class="cls-2" data-name="top">
        <g id="Union_1" class="cls-3" data-name="Union 1">
            <path d="M-2203.995 144.51c-7.764 0-15.295-1.52-22.383-4.519a57.515 57.515 0 0 1-9.768-5.301 57.899 57.899 0 0 1-15.534-15.534 57.507 57.507 0 0 1-5.301-9.768c-2.998-7.089-4.519-14.62-4.519-22.383v-1.5h-131V1.5h376.317v84.005h-130.308v1.5c0 7.764-1.52 15.294-4.518 22.383a57.49 57.49 0 0 1-5.302 9.767 57.927 57.927 0 0 1-7.022 8.512 57.918 57.918 0 0 1-8.512 7.023 57.496 57.496 0 0 1-9.767 5.301c-7.088 2.999-14.62 4.519-22.383 4.519z" class="cls-5" transform="translate(2384 -4.005)"/>
            <path d="M-2203.995 143.01c7.562 0 14.896-1.48 21.799-4.4a56.003 56.003 0 0 0 9.512-5.163 56.433 56.433 0 0 0 8.29-6.84 56.432 56.432 0 0 0 6.84-8.292 56.029 56.029 0 0 0 5.164-9.512c2.92-6.902 4.4-14.236 4.4-21.798v-3H-2017.684V3H-2391v81.005h131v3c0 7.562 1.48 14.896 4.4 21.798a55.996 55.996 0 0 0 5.163 9.512 56.416 56.416 0 0 0 6.84 8.291 56.433 56.433 0 0 0 8.291 6.84 56.005 56.005 0 0 0 9.512 5.164c6.903 2.92 14.237 4.4 21.8 4.4m0 3c-32.589 0-59.006-26.418-59.006-59.005h-131V0h379.317v87.005h-130.308c0 32.587-26.416 59.005-59.004 59.005z" class="cls-6" transform="translate(2384 -4.005)"/>
        </g>
    </g>
    <g id="Path_9" class="cls-4" data-name="Path 9">
        <path d="M54.005 107.01c-7.156 0-14.098-1.402-20.632-4.165a52.829 52.829 0 0 1-16.848-11.36 52.829 52.829 0 0 1-11.36-16.849C2.401 68.102 1 61.161 1 54.005c0-7.156 1.401-14.098 4.165-20.632a52.829 52.829 0 0 1 11.36-16.848 52.829 52.829 0 0 1 16.848-11.36C39.907 2.401 46.85 1 54.005 1c7.156 0 14.097 1.401 20.631 4.165a52.829 52.829 0 0 1 16.849 11.36 52.829 52.829 0 0 1 11.36 16.848c2.763 6.534 4.165 13.476 4.165 20.632 0 7.156-1.402 14.097-4.165 20.631a52.829 52.829 0 0 1-11.36 16.849 52.829 52.829 0 0 1-16.849 11.36c-6.534 2.763-13.475 4.165-20.631 4.165z" class="cls-5" transform="translate(126 29)"/>
        <path d="M54.005 2c-7.022 0-13.832 1.375-20.242 4.086a51.834 51.834 0 0 0-16.531 11.146 51.834 51.834 0 0 0-11.146 16.53C3.375 40.173 2 46.984 2 54.006c0 7.021 1.375 13.832 4.086 20.242a51.834 51.834 0 0 0 11.146 16.53 51.834 51.834 0 0 0 16.53 11.147c6.41 2.71 13.221 4.086 20.243 4.086 7.021 0 13.832-1.375 20.242-4.086a51.834 51.834 0 0 0 16.53-11.146 51.834 51.834 0 0 0 11.147-16.531c2.71-6.41 4.086-13.22 4.086-20.242s-1.375-13.832-4.086-20.242a51.834 51.834 0 0 0-11.146-16.531A51.834 51.834 0 0 0 74.247 6.086C67.837 3.375 61.027 2 54.005 2m0-2C83.83 0 108.01 24.179 108.01 54.005c0 29.826-24.18 54.005-54.005 54.005C24.179 108.01 0 83.83 0 54.005 0 24.179 24.179 0 54.005 0z" class="cls-6" transform="translate(126 29)"/>
    </g>
</svg>
